<svg width="24" height="24" viewBox="0 0 24 24" fill="none" xmlns="http://www.w3.org/2000/svg">
<path d="M3.0001 12C3.0001 12.3978 3.15813 12.7794 3.43944 13.0607C3.72075 13.342 4.10227 13.5 4.5001 13.5L16.3801 13.5L12.4401 17.44C12.1751 17.7244 12.0309 18.1004 12.0377 18.489C12.0446 18.8776 12.202 19.2484 12.4769 19.5232C12.7517 19.7981 13.1225 19.9555 13.5111 19.9624C13.8997 19.9692 14.2757 19.825 14.5601 19.56L21.0601 13.06C21.341 12.7788 21.4988 12.3975 21.4988 12C21.4988 11.6025 21.341 11.2213 21.0601 10.94L14.5601 4.44C14.4228 4.29263 14.2572 4.17442 14.0732 4.09244C13.8892 4.01046 13.6905 3.96637 13.4891 3.96282C13.2877 3.95927 13.0877 3.99631 12.9009 4.07176C12.7141 4.1472 12.5445 4.25949 12.402 4.40193C12.2596 4.54436 12.1473 4.71403 12.0719 4.90081C11.9964 5.08758 11.9594 5.28764 11.9629 5.48905C11.9665 5.69045 12.0106 5.88908 12.0925 6.07308C12.1745 6.25708 12.2927 6.42268 12.4401 6.56L16.3801 10.5L4.5001 10.5C3.6721 10.5 3.0001 11.172 3.0001 12Z" fill="white"/>
</svg>
