<svg width="504" height="383" viewBox="0 0 504 383" fill="none" xmlns="http://www.w3.org/2000/svg">
<g clip-path="url(#clip0_14_173)">
<path d="M466.317 348.126C449.804 360.703 429.686 373.443 409.906 379.45C404.204 381.234 398.32 382.372 392.365 382.844C386.797 383.292 381.193 382.857 375.761 381.555C361.486 378.004 348.245 371.786 335.433 364.52C331.248 362.143 327.11 359.656 322.997 357.115C316.283 352.966 309.635 348.67 302.969 344.478C301.971 343.843 300.979 343.22 299.981 342.603H299.975C298.366 341.592 296.753 340.596 295.136 339.614C294.852 339.439 294.568 339.269 294.277 339.094C291.223 337.243 288.116 335.434 284.956 333.668C284.569 333.456 284.182 333.238 283.795 333.026C277.682 329.635 271.399 326.56 264.971 323.813C260.749 322.034 256.472 320.431 252.153 319.064H252.147C250.496 318.544 248.839 318.054 247.175 317.606C242.187 316.238 237.104 315.243 231.969 314.63C224.891 313.773 217.733 313.83 210.671 314.799C210.193 314.866 209.721 314.932 209.243 315.011C190.129 318.072 172.684 328.393 153.485 330.824C152.862 330.903 152.245 330.976 151.622 331.03C151.356 331.054 151.09 331.084 150.824 331.103C145.245 331.58 139.63 331.442 134.081 330.691C118.578 328.647 103.48 322.301 89.8881 314.303C58.1137 295.604 32.3458 266.863 16.6794 233.579C13.9892 227.874 11.6006 222.033 9.5237 216.077C3.71679 199.564 0.518914 182.246 0.0451926 164.747C-1.42467 104.035 33.0717 43.1222 87.2327 15.6636C141.4 -11.7951 212.655 -2.71482 256.339 39.4683C282.839 65.0577 298.173 99.7335 318.116 130.713C338.059 161.686 366.403 191.275 402.962 195.787C421.587 198.086 441.076 193.64 458.926 199.423C468.81 202.629 477.242 208.764 484.034 216.58C488.601 221.883 492.423 227.786 495.394 234.123C497.572 238.705 499.339 243.47 500.675 248.364C500.923 249.265 501.153 250.166 501.376 251.068C510.268 287.389 496.059 325.464 466.317 348.126Z" fill="#F2F2F2"/>
<path d="M168.861 282.374H112.003C103.484 282.374 96.5781 289.28 96.5781 297.8V297.8C96.5781 306.32 103.484 313.226 112.003 313.226H168.861C177.38 313.226 184.286 306.32 184.286 297.8C184.286 289.28 177.38 282.374 168.861 282.374Z" fill="#3F3D56"/>
<path d="M151.622 305.362V331.03C145.782 331.595 139.895 331.482 134.081 330.691V305.362H151.622Z" fill="#3F3D56"/>
<path d="M210.671 314.799C210.193 314.866 209.721 314.932 209.243 315.011C190.129 318.072 172.684 328.392 153.485 330.824C152.862 330.903 152.245 330.976 151.622 331.03C151.356 331.054 151.09 331.084 150.824 331.103C146.136 326.511 141.448 321.623 137.045 316.56C134.655 313.819 132.345 311.024 130.173 308.193C124.536 300.885 119.757 293.372 116.6 285.991C116.92 282.453 114.718 274.268 113.666 268L113.66 267.994C113.212 265.363 112.97 263.076 113.194 261.606C114.476 253.125 121.402 254.098 123.531 245.786C125.452 244.192 127.497 242.754 129.647 241.485C130.004 241.274 130.367 241.062 130.742 240.85L153.848 224.879L162.679 233.542L176.12 246.73L190.685 261.013L178.322 273.505C178.322 273.505 188.653 285.417 200.732 301.297C203.975 305.562 207.344 310.117 210.671 314.799Z" fill="#2F2E41"/>
<path d="M409.906 305.362V379.45C404.204 381.234 398.32 382.372 392.365 382.844V305.362H409.906Z" fill="#3F3D56"/>
<path d="M432.589 299.312H375.731C367.212 299.312 360.306 306.219 360.306 314.739V314.739C360.306 323.258 367.212 330.165 375.731 330.165H432.589C441.108 330.165 448.014 323.258 448.014 314.739C448.014 306.219 441.108 299.312 432.589 299.312Z" fill="#3F3D56"/>
<path d="M294.277 339.094C291.223 337.243 288.115 335.434 284.956 333.668C284.569 333.456 284.182 333.238 283.795 333.026L285.875 332.137L291.489 329.723L291.543 329.699L291.604 329.905L294.277 339.094Z" fill="#FFB6B6"/>
<path d="M302.97 344.478C301.971 343.843 300.98 343.22 299.981 342.603H299.975C298.366 341.592 296.753 340.596 295.136 339.614C294.852 339.439 294.568 339.269 294.277 339.094C291.223 337.243 288.116 335.434 284.956 333.668C284.569 333.456 284.182 333.238 283.795 333.026C277.682 329.635 271.399 326.56 264.971 323.813C260.749 322.034 256.472 320.431 252.154 319.064H252.148L248.754 313.384L233.481 287.8L230.124 282.18C230.124 282.18 218.673 285.568 202.469 288.817C196.571 290.002 190.05 291.164 183.209 292.144C175.896 293.184 168.226 294.013 160.605 294.412C156.97 294.606 153.346 294.703 149.777 294.673C140.553 294.612 131.692 293.747 123.931 291.69C121.342 289.258 113.539 285.949 107.95 282.918H107.944C105.597 281.648 103.649 280.432 102.627 279.349C96.7355 273.118 101.768 268.26 96.5298 261.461C96.4593 258.966 96.5867 256.47 96.9109 253.996C96.9653 253.584 97.0198 253.167 97.0863 252.743L98.7376 224.698L111.005 223.077L129.671 220.608L149.892 217.935L152.118 235.369C152.118 235.369 167.863 234.571 187.812 234.837C219.853 235.272 262.727 238.467 268.534 252.175C269.078 253.463 269.622 254.764 270.167 256.065C271.461 259.174 272.744 262.3 274.014 265.441C278.617 276.814 283.009 288.296 287.019 299.149C289.511 305.9 291.858 312.41 294.017 318.501C295.753 323.402 297.362 328.035 298.832 332.3C300.175 336.196 301.391 339.784 302.474 343.002C302.643 343.504 302.806 344 302.97 344.478Z" fill="#2F2E41"/>
<path d="M190.125 174.555L151.38 141.645L176.588 116.13L194.175 144.94L259.365 157.866C261.326 156.39 263.673 155.517 266.12 155.353C268.568 155.188 271.011 155.74 273.151 156.94C275.291 158.14 277.035 159.937 278.171 162.111C279.308 164.286 279.787 166.744 279.551 169.186C279.314 171.628 278.373 173.949 276.84 175.865C275.308 177.781 273.251 179.21 270.921 179.977C268.591 180.745 266.088 180.817 263.717 180.186C261.346 179.556 259.21 178.248 257.569 176.424L190.125 174.555Z" fill="#A0616A"/>
<path d="M117.137 98.3932C112.66 112.962 155.305 147.709 155.305 147.709C155.779 144.211 179.957 174.371 181.602 171.64C186.278 163.877 191.422 144.688 196.819 142.235C199.906 140.833 182.199 121.338 182.199 121.338C182.199 121.338 173.166 109.387 161.241 94.2401C157.948 89.8952 153.611 86.4541 148.631 84.237C143.651 82.0198 138.192 81.0988 132.76 81.5595C132.76 81.5595 121.615 83.8245 117.137 98.3932Z" fill="#3F3D56"/>
<path d="M135.992 66.1411C150.466 66.1411 162.198 54.407 162.198 39.9322C162.198 25.4575 150.466 13.7233 135.992 13.7233C121.519 13.7233 109.787 25.4575 109.787 39.9322C109.787 54.407 121.519 66.1411 135.992 66.1411Z" fill="#A0616A"/>
<path d="M149.095 83.4633C154.741 86.8201 158.118 92.9877 160.057 99.2638C163.646 110.883 165.807 122.897 166.491 135.039L168.538 171.39L193.899 248.792C171.92 267.391 89.3036 253.019 89.3036 253.019C89.3036 253.019 86.7676 252.173 89.3036 249.637C91.8397 247.101 94.3085 249.348 91.7725 246.811C89.2365 244.275 90.9847 247.101 91.8301 244.564C92.6755 242.028 91.8301 243.719 90.9847 242.873C90.1394 242.028 97.529 234.419 97.529 234.419L90.7662 189.99L82.3127 100.372C92.457 87.6905 112.858 80.2147 112.858 80.2147L118.13 70.725L144.487 72.8339L149.095 83.4633Z" fill="#3F3D56"/>
<path d="M157.595 26.0079C159.632 27.5272 161.141 29.6471 161.909 32.0692C162.205 28.111 162.224 24.137 161.966 20.1762C161.657 17.3929 159.697 16.7669 157.429 16.0414C155.38 15.386 153.063 14.6457 152.439 11.9438C144.202 3.92912 129.862 4.33326 120.048 7.1289C114.648 8.66728 111.54 10.6438 111.262 11.8017L111.205 12.04L110.985 12.1497C106.823 14.2312 106.013 20.8043 106.066 25.9517C106.168 35.6499 109.516 46.6646 111.402 47.5594C111.502 47.6068 111.527 47.5882 111.57 47.5522C114.41 45.2822 117.875 47.7247 119.398 49.0525C120.296 43.0249 123.188 37.4722 127.612 33.2811C132.036 29.0901 137.736 26.5025 143.803 25.9317C145.784 25.7402 147.749 25.4106 149.685 24.9453C150.666 24.6913 151.676 24.5588 152.69 24.5509C154.435 24.5244 156.147 25.0328 157.595 26.0079Z" fill="#2F2E41"/>
<path d="M124.574 214.042L116.558 209.936C116.129 209.63 115.823 209.179 115.699 208.667C115.574 208.154 115.637 207.614 115.878 207.145C116.118 206.675 116.519 206.308 117.008 206.11C117.497 205.912 118.04 205.896 118.54 206.066L126.556 210.172C126.986 210.478 127.291 210.928 127.416 211.441C127.541 211.953 127.477 212.494 127.237 212.963C126.996 213.432 126.595 213.8 126.106 213.998C125.618 214.196 125.074 214.212 124.574 214.042Z" fill="#7D7AFF"/>
<path d="M97.5951 203.041L84.408 153.942L119.648 147.271L117.752 180.972L164.054 228.653C166.505 228.553 168.933 229.168 171.041 230.424C173.148 231.679 174.845 233.521 175.924 235.725C177.003 237.928 177.418 240.398 177.118 242.833C176.817 245.268 175.815 247.564 174.233 249.439C172.651 251.314 170.558 252.689 168.209 253.395C165.859 254.101 163.355 254.108 161.001 253.415C158.648 252.722 156.547 251.36 154.954 249.493C153.362 247.627 152.347 245.338 152.033 242.904L97.5951 203.041Z" fill="#A0616A"/>
<path d="M80.802 98.8919C68.8404 108.336 84.1931 161.163 84.1931 161.163C86.5701 158.554 89.3323 197.112 92.2377 195.799C100.495 192.067 115.63 179.2 121.465 180.249C124.802 180.849 121.306 154.745 121.306 154.745C121.306 154.745 120.663 139.777 119.454 120.536C119.213 115.09 117.599 109.793 114.761 105.139C111.922 100.485 107.953 96.6244 103.222 93.9172C103.222 93.9172 92.7636 89.4478 80.802 98.8919Z" fill="#3F3D56"/>
<path d="M495.394 234.123L16.6794 233.579C13.9891 227.874 11.6006 222.033 9.52368 216.077L484.035 216.58C488.601 221.883 492.423 227.786 495.394 234.123Z" fill="#3F3D56"/>
<path d="M342.922 361.054C340.448 362.251 337.952 363.407 335.433 364.52C331.248 362.143 327.11 359.656 322.997 357.115L338.252 350.413L342.922 361.054Z" fill="#FFB6B6"/>
<path d="M454.147 277.692C451.667 281.019 449.109 284.279 446.471 287.474C444.04 290.42 441.544 293.309 438.983 296.143C437.924 297.316 436.854 298.484 435.759 299.639C433.745 301.799 431.686 303.922 429.583 306.009C425.797 307.201 418.127 309.3 409.906 311.26C403.924 312.682 397.651 314.031 392.365 314.89C389.405 315.421 386.412 315.741 383.407 315.846C379.838 315.876 376.214 315.779 372.579 315.586C368.478 315.368 364.371 315.029 360.312 314.594C349.757 313.486 339.535 311.762 330.715 309.99C327.485 309.349 324.449 308.695 321.654 308.06C316.362 306.868 311.934 305.755 308.728 304.908C305.117 303.965 303.06 303.354 303.06 303.354L294.017 318.502L289.323 326.36L285.876 332.137L284.956 333.668C284.569 333.456 284.182 333.238 283.795 333.026C277.682 329.635 271.399 326.56 264.971 323.813C260.749 322.034 256.472 320.431 252.153 319.064H252.147C250.496 318.544 248.839 318.054 247.175 317.606C247.696 316.209 248.222 314.801 248.754 313.384C249.746 310.74 250.758 308.072 251.791 305.38C254.023 299.548 256.333 293.632 258.71 287.746C260.658 282.912 262.642 278.097 264.65 273.348C265.576 271.158 267.457 269.234 270.088 267.547C271.346 266.753 272.658 266.05 274.014 265.441C281.545 262.011 292.638 259.779 304.863 258.345C305.873 258.23 306.889 258.115 307.911 258.007C318.031 256.942 328.768 256.391 338.809 256.137C343.835 256.01 348.686 255.962 353.199 255.956C354.657 255.956 356.074 255.96 357.451 255.968H357.457C361.177 255.986 364.601 256.04 367.613 256.101C368.2 256.113 368.768 256.131 369.325 256.143H369.331C369.706 256.149 370.075 256.161 370.438 256.167C377.025 256.337 381.066 256.543 381.066 256.543L382.632 244.25L382.953 241.77L383.255 239.41V239.404L383.292 239.108L383.54 239.102L387.895 239.017L424.502 238.303L444.5 237.91L441.33 251.497L436.098 273.917C436.63 277.462 454.329 274.685 454.147 277.692Z" fill="#2F2E41"/>
<path d="M347.434 358.815C345.94 359.578 344.434 360.328 342.922 361.054C340.448 362.251 337.952 363.407 335.433 364.52C331.248 362.143 327.11 359.656 322.997 357.115C316.283 352.966 309.635 348.67 302.969 344.478C301.971 343.843 300.979 343.22 299.981 342.603H299.975C297.229 338.525 294.428 334.279 291.604 329.905C291.561 329.844 291.525 329.784 291.489 329.723C290.763 328.61 290.041 327.489 289.323 326.36C284.805 319.282 280.262 311.901 275.853 304.364L287.019 299.149L307.778 289.458L311.359 287.788L321.654 308.06L330.836 326.142L332.881 330.165L347.434 358.815Z" fill="#2F2E41"/>
<path d="M350.563 261.49L403.491 210.442L418.16 168.9L396.522 159.49C385.408 170.138 373.393 203.303 373.393 203.303L336.972 249.645C336.688 249.742 336.405 249.845 336.125 249.969C334.485 250.692 333.059 251.826 331.985 253.262C330.911 254.698 330.225 256.387 329.995 258.165C329.764 259.943 329.996 261.75 330.668 263.413C331.339 265.075 332.429 266.536 333.83 267.654C335.232 268.773 336.898 269.511 338.668 269.797C340.438 270.083 342.251 269.908 343.934 269.288C345.616 268.668 347.11 267.625 348.271 266.258C349.433 264.892 350.222 263.25 350.563 261.49Z" fill="#FFB8B8"/>
<path d="M390.433 164.128L417.88 172.842L417.983 172.825C428.199 171.114 436.676 154.427 441.988 140.73C443.735 136.212 443.703 131.199 441.896 126.705C440.09 122.21 436.645 118.569 432.257 116.517C429.01 115.026 425.41 114.473 421.865 114.92C418.32 115.367 414.971 116.797 412.196 119.049L398.102 130.567L390.433 164.128Z" fill="#7D7AFF"/>
<path d="M454.037 278.304L454.198 278.091C462.761 266.732 451.049 238.604 449.278 234.525L457.24 232.166L455.853 217.003L455.184 210.242L461.375 204.362L461.396 204.212L465.653 173.909L471.224 153.853C473.324 146.27 473.368 138.266 471.353 130.661C469.337 123.056 465.335 116.124 459.755 110.578L448.367 99.2693L434.723 77.9107L411.847 77.32L403.621 91.935C395.971 93.4964 389.111 97.6924 384.236 103.792C379.361 109.892 376.781 117.508 376.944 125.315L377.718 164.223L369.51 212.43L369.28 221.186L361.223 229.689L362.712 238.285L356.686 240.686L353.737 252.901C352.611 254.31 345.174 263.711 345.106 266.332C345.096 266.725 345.377 267.113 345.989 267.551C350.803 270.996 377.708 278.459 389.816 273.972C402.715 269.197 453.265 278.166 453.774 278.257L454.037 278.304Z" fill="#7D7AFF"/>
<path d="M421.287 70.7725C438.025 70.7725 451.594 57.2022 451.594 40.4623C451.594 23.7225 438.025 10.1521 421.287 10.1521C404.549 10.1521 390.98 23.7225 390.98 40.4623C390.98 57.2022 404.549 70.7725 421.287 70.7725Z" fill="#FFB8B8"/>
<path d="M417.59 71.1781C422.283 71.2513 426.974 70.9234 431.611 70.1981C436.208 69.2632 446.491 61.7268 449.358 57.1917C451.487 53.8222 452.849 48.5605 453.617 44.7401C454.651 39.6844 454.611 34.4679 453.501 29.4285C452.391 24.389 450.235 19.6389 447.173 15.4858C445.996 13.7487 444.371 12.3619 442.471 11.4724C442.303 11.4065 442.129 11.3481 441.954 11.2982C439.185 10.5696 436.697 9.02984 434.809 6.87671C434.443 6.44121 434.046 6.03264 433.622 5.65418C431.488 3.85348 428.959 2.58331 426.24 1.94748C421.853 0.773027 415.503 1.93883 407.367 5.41587C403.28 7.1628 398.81 6.53058 395.371 5.78455C395.178 5.74729 394.979 5.76119 394.793 5.82487C394.607 5.88855 394.441 5.9998 394.311 6.14753C392.848 7.52119 390.92 8.29011 388.913 8.29974C387.684 8.35372 386.394 10.0558 384.836 12.2753C384.482 12.7791 384.069 13.3672 383.772 13.7248L383.732 13.0377L383.036 13.8042C381.944 15.009 381.173 16.4708 380.797 18.0534C380.421 19.636 380.452 21.2881 380.886 22.8557C381.321 24.4233 382.145 25.8555 383.282 27.0189C384.418 28.1823 385.831 29.039 387.388 29.5094C388.624 29.8384 389.891 30.0403 391.169 30.1119C391.942 30.1815 392.743 30.2536 393.51 30.3866C395.971 30.8908 398.26 32.0247 400.153 33.6777C402.046 35.3307 403.477 37.4463 404.309 39.8179C404.505 40.3661 404.825 40.8618 405.243 41.2667C405.662 41.6717 406.168 41.975 406.722 42.1533C407.276 42.3317 407.864 42.3802 408.44 42.2952C409.017 42.2102 409.565 41.994 410.045 41.6632C410.844 41.041 411.781 40.6212 412.777 40.4398C413.774 40.2584 414.799 40.3206 415.766 40.6212C416.602 41.0859 417.252 41.8239 417.609 42.7113C418.042 43.7 418.759 44.5373 419.67 45.1164C422.785 46.7226 422.999 53.838 421.881 59.7696C420.802 65.4871 418.671 69.6232 416.697 69.8277C415.177 69.9849 415.004 70.0929 414.894 70.3616L414.795 70.6022L414.966 70.8272C415.805 71.1315 416.7 71.2512 417.59 71.1781Z" fill="#2F2E41"/>
<path d="M397.959 154.964L386.274 131.664C369.312 132.823 335.648 152.436 335.648 152.436L271.955 165.942C270.068 165.217 268.024 165.001 266.027 165.318C264.031 165.634 262.153 166.47 260.582 167.743C259.011 169.016 257.804 170.68 257.081 172.568C256.358 174.456 256.145 176.501 256.463 178.497C256.782 180.494 257.62 182.371 258.895 183.94C260.17 185.509 261.835 186.715 263.724 187.436C265.612 188.157 267.657 188.368 269.653 188.047C271.649 187.726 273.525 186.885 275.092 185.608L356.114 179.8L397.959 154.964Z" fill="#FFB8B8"/>
<path d="M393.246 158.79L423.765 136.108L429.14 116.733C430.182 112.925 430.138 108.902 429.013 105.119C427.889 101.335 425.728 97.9412 422.776 95.321C418.751 91.7961 413.537 89.9313 408.19 90.1039C402.842 90.2765 397.759 92.4734 393.969 96.2505C382.485 107.715 369.386 123.709 372.2 134.8L372.228 134.912L393.246 158.79Z" fill="#7D7AFF"/>
<path d="M355.467 219.459H273.808V230.348H355.467V219.459Z" fill="white"/>
<path d="M146.783 219.459H65.1243V230.348H146.783V219.459Z" fill="white"/>
<path d="M156.319 167.094V218.94C156.319 219.601 156.582 220.234 157.049 220.702C157.516 221.169 158.15 221.431 158.81 221.432H235.633C236.293 221.431 236.927 221.169 237.394 220.702C237.861 220.234 238.124 219.601 238.124 218.94V167.094C238.123 166.433 237.86 165.801 237.393 165.334C236.926 164.868 236.293 164.605 235.633 164.604H158.81C158.15 164.605 157.517 164.868 157.05 165.334C156.583 165.801 156.32 166.433 156.319 167.094Z" fill="#3F3D56"/>
<path d="M158.121 167.739V218.301C158.121 218.654 158.262 218.992 158.512 219.242C158.761 219.491 159.099 219.632 159.452 219.632H234.993C235.346 219.632 235.685 219.491 235.934 219.242C236.184 218.992 236.324 218.654 236.325 218.301V167.739C236.325 167.385 236.185 167.046 235.935 166.796C235.685 166.546 235.347 166.405 234.993 166.404H159.452C159.099 166.405 158.76 166.546 158.511 166.796C158.261 167.046 158.121 167.385 158.121 167.739Z" fill="#7D7AFF"/>
<path d="M154.712 229.052C154.853 229.228 155.032 229.37 155.235 229.468C155.439 229.565 155.662 229.615 155.887 229.614H238.146C238.371 229.614 238.593 229.563 238.796 229.466C239 229.37 239.178 229.229 239.32 229.054C239.462 228.879 239.563 228.675 239.616 228.456C239.669 228.238 239.672 228.01 239.626 227.79L238.349 221.724C238.296 221.476 238.182 221.246 238.018 221.054C237.853 220.862 237.643 220.714 237.407 220.624C237.236 220.557 237.053 220.523 236.869 220.523H157.159C156.976 220.523 156.793 220.557 156.622 220.624C156.386 220.714 156.176 220.862 156.011 221.054C155.847 221.246 155.733 221.476 155.68 221.724L154.403 227.79C154.357 228.01 154.362 228.237 154.415 228.456C154.468 228.674 154.57 228.877 154.712 229.052Z" fill="#2F2E41"/>
<path d="M234.047 223.136H235.99C236.153 223.136 236.285 223.003 236.285 222.84V221.911C236.285 221.747 236.153 221.615 235.99 221.615H234.047C233.884 221.615 233.752 221.747 233.752 221.911V222.84C233.752 223.003 233.884 223.136 234.047 223.136Z" fill="#3F3D56"/>
<path d="M228.98 223.136H230.923C231.086 223.136 231.218 223.003 231.218 222.84V221.911C231.218 221.747 231.086 221.615 230.923 221.615H228.98C228.817 221.615 228.685 221.747 228.685 221.911V222.84C228.685 223.003 228.817 223.136 228.98 223.136Z" fill="#3F3D56"/>
<path d="M223.913 223.136H225.856C226.019 223.136 226.151 223.003 226.151 222.84V221.911C226.151 221.747 226.019 221.615 225.856 221.615H223.913C223.75 221.615 223.618 221.747 223.618 221.911V222.84C223.618 223.003 223.75 223.136 223.913 223.136Z" fill="#3F3D56"/>
<path d="M218.846 223.136H220.789C220.952 223.136 221.084 223.003 221.084 222.84V221.911C221.084 221.747 220.952 221.615 220.789 221.615H218.846C218.683 221.615 218.55 221.747 218.55 221.911V222.84C218.55 223.003 218.683 223.136 218.846 223.136Z" fill="#3F3D56"/>
<path d="M213.779 223.136H215.722C215.885 223.136 216.017 223.003 216.017 222.84V221.911C216.017 221.747 215.885 221.615 215.722 221.615H213.779C213.616 221.615 213.483 221.747 213.483 221.911V222.84C213.483 223.003 213.616 223.136 213.779 223.136Z" fill="#3F3D56"/>
<path d="M208.711 223.136H210.654C210.817 223.136 210.95 223.003 210.95 222.84V221.911C210.95 221.747 210.817 221.615 210.654 221.615H208.711C208.548 221.615 208.416 221.747 208.416 221.911V222.84C208.416 223.003 208.548 223.136 208.711 223.136Z" fill="#3F3D56"/>
<path d="M203.645 223.136H205.588C205.751 223.136 205.883 223.003 205.883 222.84V221.911C205.883 221.747 205.751 221.615 205.588 221.615H203.645C203.482 221.615 203.349 221.747 203.349 221.911V222.84C203.349 223.003 203.482 223.136 203.645 223.136Z" fill="#3F3D56"/>
<path d="M198.577 223.136H200.52C200.683 223.136 200.816 223.003 200.816 222.84V221.911C200.816 221.747 200.683 221.615 200.52 221.615H198.577C198.414 221.615 198.282 221.747 198.282 221.911V222.84C198.282 223.003 198.414 223.136 198.577 223.136Z" fill="#3F3D56"/>
<path d="M193.51 223.136H195.453C195.616 223.136 195.749 223.003 195.749 222.84V221.911C195.749 221.747 195.616 221.615 195.453 221.615H193.51C193.347 221.615 193.215 221.747 193.215 221.911V222.84C193.215 223.003 193.347 223.136 193.51 223.136Z" fill="#3F3D56"/>
<path d="M188.443 223.136H190.386C190.549 223.136 190.682 223.003 190.682 222.84V221.911C190.682 221.747 190.549 221.615 190.386 221.615H188.443C188.28 221.615 188.148 221.747 188.148 221.911V222.84C188.148 223.003 188.28 223.136 188.443 223.136Z" fill="#3F3D56"/>
<path d="M183.376 223.136H185.319C185.482 223.136 185.615 223.003 185.615 222.84V221.911C185.615 221.747 185.482 221.615 185.319 221.615H183.376C183.213 221.615 183.081 221.747 183.081 221.911V222.84C183.081 223.003 183.213 223.136 183.376 223.136Z" fill="#3F3D56"/>
<path d="M178.309 223.136H180.252C180.415 223.136 180.547 223.003 180.547 222.84V221.911C180.547 221.747 180.415 221.615 180.252 221.615H178.309C178.146 221.615 178.014 221.747 178.014 221.911V222.84C178.014 223.003 178.146 223.136 178.309 223.136Z" fill="#3F3D56"/>
<path d="M173.242 223.136H175.185C175.348 223.136 175.48 223.003 175.48 222.84V221.911C175.48 221.747 175.348 221.615 175.185 221.615H173.242C173.079 221.615 172.947 221.747 172.947 221.911V222.84C172.947 223.003 173.079 223.136 173.242 223.136Z" fill="#3F3D56"/>
<path d="M168.175 223.136H170.118C170.281 223.136 170.413 223.003 170.413 222.84V221.911C170.413 221.747 170.281 221.615 170.118 221.615H168.175C168.012 221.615 167.88 221.747 167.88 221.911V222.84C167.88 223.003 168.012 223.136 168.175 223.136Z" fill="#3F3D56"/>
<path d="M163.108 223.136H165.051C165.214 223.136 165.346 223.003 165.346 222.84V221.911C165.346 221.747 165.214 221.615 165.051 221.615H163.108C162.945 221.615 162.813 221.747 162.813 221.911V222.84C162.813 223.003 162.945 223.136 163.108 223.136Z" fill="#3F3D56"/>
<path d="M158.041 223.136H159.984C160.147 223.136 160.279 223.003 160.279 222.84V221.911C160.279 221.747 160.147 221.615 159.984 221.615H158.041C157.878 221.615 157.746 221.747 157.746 221.911V222.84C157.746 223.003 157.878 223.136 158.041 223.136Z" fill="#3F3D56"/>
<path d="M234.107 225.669H236.05C236.213 225.669 236.345 225.537 236.345 225.374V224.444C236.345 224.281 236.213 224.149 236.05 224.149H234.107C233.944 224.149 233.812 224.281 233.812 224.444V225.374C233.812 225.537 233.944 225.669 234.107 225.669Z" fill="#3F3D56"/>
<path d="M229.04 225.669H230.983C231.146 225.669 231.278 225.537 231.278 225.374V224.444C231.278 224.281 231.146 224.149 230.983 224.149H229.04C228.877 224.149 228.745 224.281 228.745 224.444V225.374C228.745 225.537 228.877 225.669 229.04 225.669Z" fill="#3F3D56"/>
<path d="M223.973 225.669H225.916C226.079 225.669 226.211 225.537 226.211 225.374V224.444C226.211 224.281 226.079 224.149 225.916 224.149H223.973C223.81 224.149 223.677 224.281 223.677 224.444V225.374C223.677 225.537 223.81 225.669 223.973 225.669Z" fill="#3F3D56"/>
<path d="M218.906 225.669H220.849C221.012 225.669 221.144 225.537 221.144 225.374V224.444C221.144 224.281 221.012 224.149 220.849 224.149H218.906C218.742 224.149 218.61 224.281 218.61 224.444V225.374C218.61 225.537 218.742 225.669 218.906 225.669Z" fill="#3F3D56"/>
<path d="M213.839 225.669H215.782C215.945 225.669 216.077 225.537 216.077 225.374V224.444C216.077 224.281 215.945 224.149 215.782 224.149H213.839C213.676 224.149 213.543 224.281 213.543 224.444V225.374C213.543 225.537 213.676 225.669 213.839 225.669Z" fill="#3F3D56"/>
<path d="M208.772 225.669H210.714C210.878 225.669 211.01 225.537 211.01 225.374V224.444C211.01 224.281 210.878 224.149 210.714 224.149H208.772C208.608 224.149 208.476 224.281 208.476 224.444V225.374C208.476 225.537 208.608 225.669 208.772 225.669Z" fill="#3F3D56"/>
<path d="M203.704 225.669H205.647C205.81 225.669 205.943 225.537 205.943 225.374V224.444C205.943 224.281 205.81 224.149 205.647 224.149H203.704C203.541 224.149 203.409 224.281 203.409 224.444V225.374C203.409 225.537 203.541 225.669 203.704 225.669Z" fill="#3F3D56"/>
<path d="M198.637 225.669H200.58C200.743 225.669 200.875 225.537 200.875 225.374V224.444C200.875 224.281 200.743 224.149 200.58 224.149H198.637C198.474 224.149 198.342 224.281 198.342 224.444V225.374C198.342 225.537 198.474 225.669 198.637 225.669Z" fill="#3F3D56"/>
<path d="M193.57 225.669H195.513C195.676 225.669 195.809 225.537 195.809 225.374V224.444C195.809 224.281 195.676 224.149 195.513 224.149H193.57C193.407 224.149 193.275 224.281 193.275 224.444V225.374C193.275 225.537 193.407 225.669 193.57 225.669Z" fill="#3F3D56"/>
<path d="M188.503 225.669H190.446C190.609 225.669 190.741 225.537 190.741 225.374V224.444C190.741 224.281 190.609 224.149 190.446 224.149H188.503C188.34 224.149 188.208 224.281 188.208 224.444V225.374C188.208 225.537 188.34 225.669 188.503 225.669Z" fill="#3F3D56"/>
<path d="M183.436 225.669H185.379C185.542 225.669 185.674 225.537 185.674 225.374V224.444C185.674 224.281 185.542 224.149 185.379 224.149H183.436C183.273 224.149 183.141 224.281 183.141 224.444V225.374C183.141 225.537 183.273 225.669 183.436 225.669Z" fill="#3F3D56"/>
<path d="M178.369 225.669H180.312C180.475 225.669 180.607 225.537 180.607 225.374V224.444C180.607 224.281 180.475 224.149 180.312 224.149H178.369C178.206 224.149 178.074 224.281 178.074 224.444V225.374C178.074 225.537 178.206 225.669 178.369 225.669Z" fill="#3F3D56"/>
<path d="M173.302 225.669H175.245C175.408 225.669 175.54 225.537 175.54 225.374V224.444C175.54 224.281 175.408 224.149 175.245 224.149H173.302C173.139 224.149 173.007 224.281 173.007 224.444V225.374C173.007 225.537 173.139 225.669 173.302 225.669Z" fill="#3F3D56"/>
<path d="M168.235 225.669H170.178C170.341 225.669 170.473 225.537 170.473 225.374V224.444C170.473 224.281 170.341 224.149 170.178 224.149H168.235C168.072 224.149 167.94 224.281 167.94 224.444V225.374C167.94 225.537 168.072 225.669 168.235 225.669Z" fill="#3F3D56"/>
<path d="M163.168 225.669H165.111C165.274 225.669 165.406 225.537 165.406 225.374V224.444C165.406 224.281 165.274 224.149 165.111 224.149H163.168C163.005 224.149 162.872 224.281 162.872 224.444V225.374C162.872 225.537 163.005 225.669 163.168 225.669Z" fill="#3F3D56"/>
<path d="M158.101 225.669H160.044C160.207 225.669 160.339 225.537 160.339 225.374V224.444C160.339 224.281 160.207 224.149 160.044 224.149H158.101C157.938 224.149 157.805 224.281 157.805 224.444V225.374C157.805 225.537 157.938 225.669 158.101 225.669Z" fill="#3F3D56"/>
<path d="M192.05 228.71H211.728C211.891 228.71 212.023 228.578 212.023 228.415V227.485C212.023 227.322 211.891 227.19 211.728 227.19H192.05C191.887 227.19 191.755 227.322 191.755 227.485V228.415C191.755 228.578 191.887 228.71 192.05 228.71Z" fill="#3F3D56"/>
</g>
<defs>
<clipPath id="clip0_14_173">
<rect width="504" height="383" fill="white"/>
</clipPath>
</defs>
</svg>
